/* XPM */
static char *opensurge[] = {
/* columns rows colors chars-per-pixel */
"32 32 27 1 ",
"  c black",
". c #804000",
"X c #9C5210",
"o c #D14D02",
"O c #EB6807",
"+ c #F6792B",
"@ c #008000",
"# c #00B000",
"$ c #FA810B",
"% c #F6814B",
"& c #FAA965",
"* c #FFA269",
"= c #FDA572",
"- c #808080",
"; c gray68",
": c gray69",
"> c #FFA4A5",
", c #FFB2B3",
"< c #FECE90",
"1 c #FDDCA9",
"2 c #C0C0C0",
"3 c #CACACA",
"4 c gray88",
"5 c gray90",
"6 c #FEFAF2",
"7 c gray100",
"8 c None",
/* pixels */
"8888*888o88888888888888888888888",
"888o%*88oo8888888888888888888888",
"888o,%*8ooo888888888888888888888",
"888o,>%*oooo88888888888888888888",
"888o,>>%*oooo8888888888888888888",
"888o,>>>%*oooo888888888888888888",
"888oO,>>>%*ooo888888888888888888",
"888oO,>>>>%*oo888888888888888888",
"888oOO,>>>>%*o888888888888888888",
"8888oO,>>>>>$o888OOOOO8888888888",
"88888ooO,>>>>$o8O$$$$$O888888888",
"8888888oO,>>>$$$$$$Ooooo88888888",
"88888888oO,>>$$$$$oo888888888888",
"888888888O,>>$$$$$$$O88888888888",
"888888888O%$$$$$$$$$$O8888888888",
"888888888O$$$$$$$$$$$O8888888888",
"888888888O$$$$$$$O$$$$O888888888",
"88888888O$$$$$   $O$$$O888888888",
"88888888O$$$$$444 $$&&1O88888888",
"8888888O$$$$$$666@ $1111O8888888",
"888888O$$$$&&<266@#<11==O8888888",
"88888oo$$$&<1111111111--88888888",
"8888888oo$<<11.11111<&8888888888",
"888888888oo&<<1.111<&88888888888",
"888888888888o&<<<<<&888888888888",
"88888888888oO2444444288888888888",
"8888888888oO24477777428888888888",
"888888888oO$o+247777+oo88;;;8888",
"88888888oO$88o$$2477+oooX;;;;888",
"8888888oO$888o$$2477+oooo;;;;888",
"8888888353888o$$$222o8ooo;;;;888",
"888888::::8877o$$<&o88888;;;8888"
};
