/* XPM */
static char *renpy[]={
"32 32 858 2",
"Qt c #1b1b5e",
".# c #1c1c5e",
".a c #1d1d60",
".b c #1f1f61",
"gy c #1f274a",
".c c #202062",
".A c #212062",
".R c #212162",
".d c #222263",
"gF c #222b54",
".e c #242464",
"f5 c #242e58",
".f c #252565",
".S c #252666",
"#a c #262666",
".T c #272767",
".g c #282867",
"#b c #292968",
".U c #2a2968",
"#u c #2a2a68",
"#v c #2b2b69",
"#c c #2c2b69",
".B c #2d2b68",
"#w c #2d2d6a",
"#R c #2d2d6b",
".h c #2f2c68",
"#S c #2f2f6c",
"ah c #31316d",
"#T c #32316d",
"gd c #323b65",
"ai c #33336e",
"aK c #33336f",
".V c #342f6a",
"aL c #343470",
"be c #363671",
"#x c #37336d",
"aM c #373671",
"bf c #383872",
"gx c #383e5d",
"#d c #3a326c",
"bD c #3a3a73",
"bE c #3b3b75",
"ge c #3b3f5b",
"b9 c #3d3d76",
"aj c #3e3971",
"bg c #3f3c73",
"c. c #3f3f77",
"fz c #403f55",
".r c #414178",
"cD c #424279",
".s c #42427a",
"f4 c #42496b",
".t c #44447b",
"bF c #464076",
".u c #46467d",
"gG c #464d6c",
"g8 c #465070",
"c5 c #47467c",
".C c #48366c",
".v c #48487e",
".M c #4a497e",
".w c #4a4a7f",
".L c #4b487c",
".x c #4b4b80",
".q c #4c4377",
"dw c #4c4b7f",
".N c #4c4b80",
".y c #4d4d81",
"c# c #4e4578",
".z c #4f4f82",
".O c #4f4f83",
"dZ c #504e81",
".8 c #504f83",
".P c #505084",
".9 c #515184",
".Q c #525285",
"aN c #544476",
"es c #545184",
"#. c #545486",
".i c #563c6c",
"## c #565687",
"#U c #574274",
"#s c #575789",
"cE c #594a7b",
"eX c #595585",
"#t c #59598a",
".7 c #5a5081",
"fU c #5a5a8a",
"#P c #5b5b8b",
"fp c #5c5888",
"#Q c #5c5c8c",
".K c #5d4b78",
"ae c #5d5d8c",
"go c #5d5d8d",
"g1 c #5d667d",
"fJ c #5e5b69",
"af c #5f5f8d",
"gE c #5f637c",
"#O c #605a89",
"fV c #605c8a",
"fy c #605e6b",
"ag c #60608f",
"gQ c #61618f",
"aH c #62608e",
"aI c #626290",
"aJ c #646491",
"#r c #655886",
"gp c #655f8c",
"hf c #656491",
"bc c #666692",
"f6 c #686779",
"bd c #686894",
".W c #69446f",
"bb c #696590",
"hG c #696893",
"bB c #6a6a95",
"gz c #6a6c7c",
"c6 c #6b527e",
"bC c #6b6b96",
"h3 c #6d6b95",
"b7 c #6d6d98",
"fK c #6e6467",
"ad c #6f618b",
"b8 c #6f6f99",
"bA c #706992",
"cB c #707099",
"cC c #72729b",
"gR c #73658b",
"iM c #73729b",
"b6 c #756c93",
"ip c #756f96",
"c3 c #75739b",
"c4 c #76769e",
"du c #78769d",
"jc c #78779f",
"gc c #79798d",
"dv c #7979a0",
"jC c #7b7ba1",
"jd c #7c799e",
"dX c #7c7aa0",
"dY c #7c7ca3",
"jD c #7c7da3",
"#y c #7d5076",
"cA c #7d6e93",
"j1 c #7d7da3",
".p c #7e5376",
"bh c #7e5479",
"dx c #7e5a7f",
"jE c #7e7ea4",
".6 c #7f5a7f",
"iN c #807498",
"eq c #807da1",
"er c #8080a5",
"jF c #8180a5",
"g7 c #818496",
"je c #82799b",
"jG c #8282a5",
"j2 c #8282a6",
"#e c #834e73",
"hg c #836986",
"eV c #837fa2",
"j3 c #8383a7",
"lf c #838599",
"eW c #8484a8",
"g0 c #848898",
"jf c #857a9b",
"j4 c #8585a8",
"ks c #8585a9",
"jg c #867897",
"kN c #8686a9",
"le c #868aa9",
"c2 c #876e8d",
"jH c #8781a3",
"fo c #8787aa",
"j5 c #8888ab",
"lq c #888fa8",
"fn c #8980a1",
"lp c #898998",
"kO c #8989ac",
"aG c #8a698b",
"jJ c #8a819f",
"j6 c #8a8aac",
"fA c #8b7f82",
"jI c #8b809e",
"fT c #8b8aac",
"kP c #8b8bad",
"jK c #8c809c",
"j7 c #8c8cac",
"kt c #8c8cad",
"kQ c #8c8cae",
"d5 c #8d535e",
"dt c #8d6c86",
"ku c #8d8dae",
"d0 c #8e5f7f",
"j8 c #8e8cab",
"gn c #8e8dae",
"kR c #8e8eaf",
"fR c #8f545e",
"dW c #8f687c",
"jL c #8f768d",
"kv c #8f8fb0",
"gl c #90545e",
"iO c #907593",
"kS c #9090b0",
"lb c #9090b1",
"g9 c #9092a3",
"dC c #91555e",
"fm c #915661",
"ep c #916273",
"fS c #917d99",
"kw c #9191b1",
"eU c #925b68",
"hH c #926c7f",
"gf c #928680",
"gP c #9291b0",
"lc c #9292b2",
"gN c #93545f",
"jk c #936774",
"kT c #9393b3",
"kU c #9394b3",
"i6 c #946069",
"jj c #946b78",
"ld c #9494b3",
"iR c #956573",
"jt c #956774",
"he c #9593b2",
"i5 c #965e65",
"f3 c #969394",
"kx c #9693b0",
"jl c #975f67",
"iF c #976068",
"iU c #97616a",
"gm c #97778e",
"j9 c #978fa9",
"d# c #985861",
".J c #985e71",
"jh c #98748b",
"ey c #996167",
"iq c #997186",
"jR c #997483",
"d6 c #9a6067",
"iV c #9a666d",
"e7 c #9a7f78",
"dH c #9b5f65",
"i8 c #9b6873",
"gO c #9b6f80",
"fx c #9b8d84",
".D c #9c5875",
"dD c #9c5c64",
"ek c #9c6268",
"ak c #9c6682",
"ju c #9c727e",
"jS c #9c7d8d",
"kV c #9c97b0",
"dS c #9d6065",
"dN c #9d6167",
"et c #9d6580",
"h4 c #9d6e7d",
"jw c #9d8092",
"hF c #9d95b0",
"iu c #9e5e66",
"df c #9e5f65",
"ix c #9e636a",
"iQ c #9e6f7f",
"jT c #9e90a5",
"hd c #9f6773",
"jM c #9f7985",
"iH c #a05f66",
"dI c #a0666a",
"e. c #a0686d",
"kh c #a09bb5",
"dO c #a16268",
"kg c #a199af",
"h1 c #a26068",
"hE c #a26169",
"dG c #a2676b",
"iP c #a26e7b",
"jU c #a299b0",
"ki c #a29fb9",
"hD c #a35d64",
"di c #a36267",
"dE c #a36268",
"dK c #a3656a",
"dF c #a3686c",
"e6 c #a38c82",
"g2 c #a39fa5",
"kG c #a3a2bc",
"kj c #a3a3bd",
"kH c #a3a3be",
"k4 c #a3a4bf",
"dh c #a46166",
"da c #a46167",
"ji c #a46b77",
"jQ c #a47981",
"jW c #a49eb6",
"in c #a55f67",
"dl c #a56066",
"dk c #a56267",
"gS c #a56469",
"dM c #a5676b",
"jx c #a5879b",
"h2 c #a593ac",
"fI c #a59c9c",
"jV c #a59fb7",
"kk c #a5a5bf",
"iw c #a66066",
"hh c #a66669",
"dR c #a6676b",
"dL c #a6696c",
"jX c #a69fb7",
"kl c #a6a7c0",
"lr c #a6a8c0",
"h8 c #a75f66",
"iT c #a76369",
"#N c #a7738b",
"iL c #a791a7",
"jb c #a7a2bb",
"kI c #a7a7c0",
"k5 c #a7a7c1",
"dg c #a86569",
"eQ c #a8666b",
"d9 c #a87274",
"jv c #a88391",
"io c #a891a8",
"km c #a8a8c1",
"k6 c #a8a9c1",
"el c #a96066",
"hc c #a96167",
"hK c #a96267",
"dj c #a9656a",
"gq c #a9666f",
"eY c #a9697f",
"dQ c #a96a6d",
"ba c #a97088",
"ir c #a97180",
"jY c #a9a5bc",
"cI c #aa6067",
"gL c #aa6167",
"h7 c #aa6368",
"iG c #aa646a",
"de c #aa666a",
"ii c #aa686c",
"fW c #aa6876",
"i7 c #aa6f77",
"ei c #aa7575",
"js c #aa7a7c",
"jA c #aaa4bd",
"kn c #aaaac2",
"hk c #ab6168",
"ij c #ab6268",
"ec c #ab7071",
"ja c #ab8898",
"jB c #abaac2",
"hB c #ac6167",
"iK c #ac6269",
"it c #ac666c",
"hI c #ac696b",
"fq c #ac697c",
"iS c #ac6a74",
"i9 c #ac707a",
"ej c #ac7677",
"d7 c #ac7878",
"d8 c #ac7879",
"jy c #ac8998",
"jz c #ac9db1",
"ko c #acacc3",
"jZ c #acacc4",
"hj c #ad6368",
"gj c #ad6369",
"dP c #ad6b6d",
"eg c #ad7979",
"k7 c #adadc5",
"eo c #ae6168",
"ds c #ae6369",
"cP c #ae656b",
"eb c #ae696d",
"ee c #ae7473",
"kp c #aeaec5",
"j0 c #aeaec6",
"gV c #af6369",
".5 c #af677b",
"bG c #af677d",
"is c #af696c",
"kJ c #afafc6",
"h6 c #b0686b",
"dd c #b0696d",
"dJ c #b06f70",
"ih c #b07d7e",
"kq c #b0b0c7",
".j c #b16075",
"hZ c #b16469",
"iI c #b1646a",
"cO c #b1686d",
"cY c #b1696b",
"h5 c #b16c71",
"k8 c #b1b1c7",
"kK c #b1b1c8",
"kr c #b1b2c8",
"eT c #b26269",
"h0 c #b26369",
"dT c #b2656a",
"fP c #b2666a",
"iv c #b2666b",
"eh c #b27e7c",
"fL c #b2988b",
"ls c #b2b2c8",
"fr c #b36369",
"ik c #b3646a",
"il c #b3656a",
"hJ c #b3686b",
"dc c #b3696d",
"e# c #b37d7c",
"k9 c #b3b3c8",
"kL c #b3b3c9",
"h9 c #b4666b",
"cQ c #b4686c",
"cR c #b46a6e",
"ef c #b47d7b",
"eP c #b4817f",
"i4 c #b48483",
"jm c #b48686",
"gH c #b4afaf",
"lt c #b4b4c9",
"l. c #b4b5ca",
"eZ c #b5636a",
"fl c #b5646a",
"gU c #b5676b",
"dn c #b56b6e",
"j. c #b56f76",
"eH c #b57c7a",
"ff c #b59b8e",
"kM c #b5b5ca",
"lu c #b5b5cb",
"ce c #b6666b",
"ed c #b67c79",
"i. c #b68484",
"fX c #b7666c",
"cT c #b7686c",
"#q c #b77085",
"iE c #b78685",
"l# c #b7b7cc",
"hC c #b8676b",
"hi c #b8686c",
"do c #b86b6e",
"j# c #b87a83",
"la c #b8b8cd",
"lv c #b9b9ce",
"gr c #ba686c",
"db c #ba6a6e",
"ky c #ba9ea7",
"fQ c #bb666b",
"gT c #bb696d",
"cS c #bb6c6f",
"dm c #bb6d6f",
"gw c #bbb9be",
"lw c #bbbbcf",
"cJ c #bc6a6e",
"iW c #bc8f8e",
"k3 c #bcaeb8",
"hL c #bd6d70",
"ez c #bd8b87",
"lx c #bdbdd0",
"im c #be686d",
"gs c #be6a6e",
"dp c #be6b6d",
"gk c #bf696e",
"c1 c #bf6a6e",
"fZ c #bf6b6e",
"hY c #bf6d6f",
"aA c #bf7c50",
"ea c #bf817d",
"iy c #bf9290",
"k. c #bf9fa3",
"kF c #bfacb5",
"eu c #c0676d",
"eG c #c07e7c",
"fj c #c08580",
"az c #c08a46",
"gM c #c16a6e",
".2 c #c16b6e",
"e8 c #c19f95",
"iJ c #c26b70",
"eD c #c2918c",
"kf c #c2a7aa",
".4 c #c36d75",
"cf c #c37072",
"bz c #c37482",
".I c #c46d71",
"cl c #c46e71",
"cN c #c47174",
"kW c #c4a2a5",
".3 c #c56d70",
"a6 c #c59141",
"fg c #c5a597",
"cX c #c67273",
"hv c #c6c0c1",
"eR c #c76f71",
"cv c #c77172",
"hX c #c78b86",
"fa c #c7918a",
"eC c #c79791",
"ex c #c86c70",
"cU c #c86f73",
"e3 c #c8928b",
"eI c #c8938a",
"eJ c #c8948c",
"eN c #c89891",
"fY c #c96f71",
"eS c #c97072",
"fk c #c97173",
"eO c #c99a92",
"d4 c #ca6c70",
"ft c #ca6f72",
"cK c #ca7374",
"lg c #caafac",
"cV c #cb7273",
"cM c #cb7274",
"jN c #cb9c97",
"hl c #cc7777",
"a5 c #cc9448",
".o c #cd6e7a",
"eE c #cd9e95",
"dB c #ce6e71",
"a7 c #ce8154",
"ay c #ce9d48",
"lo c #ceb2aa",
"em c #cf7173",
"cm c #cf7273",
"cn c #d07374",
"ck c #d07477",
"hA c #d07879",
"hM c #d08a85",
"eB c #d0a59d",
"jP c #d0aca6",
"d1 c #d16d72",
"cz c #d17176",
"bK c #d17374",
"bu c #d17b5e",
"b5 c #d2757c",
"cW c #d27677",
"e2 c #d27777",
"hq c #d2cdca",
".X c #d36d7a",
".1 c #d37174",
"co c #d37375",
"bL c #d37475",
"bm c #d37c66",
"f2 c #d3baaa",
"d. c #d47174",
"fs c #d47374",
"cL c #d47678",
"e5 c #d4b7a9",
"fe c #d4bbac",
"e1 c #d57275",
"fO c #d57a79",
"eM c #d5aa9f",
"ca c #d6757f",
"a4 c #d69a55",
"eF c #d69d93",
"hb c #d77c7b",
"gW c #d77d7c",
"fb c #d7aba0",
"jr c #d7b8b1",
"dU c #d87576",
"hu c #d8d1ce",
".H c #d97476",
"b1 c #d97676",
"cu c #d97878",
"eK c #d9ada1",
"eA c #d9b0a5",
"gD c #d9d1cc",
"en c #da7677",
"ax c #dbb157",
"fh c #dbb3a4",
".0 c #dc7476",
"cp c #dc7577",
"b4 c #dc7779",
"gi c #dc7f7d",
"gK c #dc7f7e",
"aS c #dc8969",
"f# c #dca398",
"gb c #dcd3cb",
"gt c #dd8381",
"eL c #ddb5a8",
"b. c #de7577",
"e0 c #de7677",
"#V c #de7b85",
"fu c #de8480",
"fw c #dec0ad",
"gZ c #ded5d2",
"bM c #df7b7c",
"bt c #df7e69",
"aT c #dfad75",
"c8 c #e07578",
"ew c #e07677",
"cr c #e07979",
"cy c #e07d7f",
"f0 c #e08682",
"hW c #e0b9ad",
"hp c #e0d9d4",
"by c #e17779",
"cg c #e17d7e",
"aO c #e1848c",
"fi c #e1b6a6",
".Z c #e27778",
"cj c #e27a7b",
"fN c #e2ae9f",
"hN c #e2bbae",
"bR c #e37879",
"cG c #e37a7d",
"aB c #e37c6d",
"ac c #e3888f",
"i3 c #e3c6bb",
"cs c #e47b7b",
"a3 c #e4a268",
"jn c #e4c9c0",
"hw c #e4d8d2",
"h. c #e4dad5",
"dz c #e57677",
"dy c #e57678",
"bv c #e57c75",
"fE c #e5bcae",
"e9 c #e5c1b3",
"ig c #e5c3b7",
"gg c #e5c8b5",
"aD c #e67678",
"dq c #e67b7b",
"aE c #e67b7c",
"bn c #e68073",
"cd c #e68183",
"f7 c #e6d9cf",
"hr c #e6dbd2",
"ev c #e77879",
"cq c #e77a7b",
"f1 c #e7baa8",
"gu c #e7bbaa",
"e4 c #e7bfaf",
"gA c #e7ddd4",
"d3 c #e87879",
"ci c #e87d7e",
"cw c #e87f7f",
"kz c #e8ae9d",
"g6 c #e8ded6",
"bS c #e97a7a",
"ch c #e97e7f",
"bl c #e98079",
"ct c #e98081",
"c0 c #e98182",
"cb c #e98384",
"hm c #e9aa9e",
"kX c #e9ae9d",
"gX c #e9b5a6",
"kC c #e9b9a6",
"fv c #e9b9a8",
"fc c #e9c5b6",
"iX c #e9d2c8",
"d2 c #ea797a",
"bT c #ea7a7a",
"k# c #eab4a3",
"aa c #eb797b",
"dV c #eb7c7c",
"bs c #eb7e75",
"b# c #eb8081",
"kA c #ebb3a2",
"kB c #ebb8a5",
"gv c #ebd4c5",
"fH c #ebdcd0",
"bQ c #ec7b7c",
"hz c #ecb2a4",
"kY c #ecb4a2",
"li c #ecb4a3",
"ka c #ecc3b2",
"fM c #ecc8b3",
"fF c #eccdbe",
"iD c #eccdc0",
"#f c #ed787d",
"dA c #ed7a7a",
"b0 c #ed7b7c",
"bx c #ed7f80",
"lj c #edb6a5",
"lh c #edc0b0",
"ke c #edc6b5",
"fB c #edd7c9",
"#i c #ee7a7a",
"bU c #ee7b7b",
"a8 c #ee7d76",
"ha c #eeb9a8",
"f. c #eec3b2",
"k2 c #eec6b3",
".E c #ef797d",
"cF c #ef7b7e",
"a. c #ef7c77",
"kZ c #efbba8",
"gJ c #efbfac",
"gh c #efc0ad",
"kD c #efc2af",
"kE c #efc2b0",
"aw c #efc56f",
"fd c #efd3c4",
"i# c #efd3c7",
"#9 c #f07f74",
"bH c #f08a8b",
"#7 c #f08d70",
"a2 c #f0a876",
"aU c #f0bb90",
"lk c #f0beab",
"jO c #f0cfc1",
"gI c #f0d6c5",
"iz c #f0dace",
"bX c #f17e7e",
"dr c #f18081",
"b2 c #f18484",
"bJ c #f18888",
"#6 c #f19f74",
"k0 c #f1c1ad",
".k c #f27a7d",
"#j c #f27b7b",
".G c #f27b7c",
"#h c #f27c7c",
"bW c #f27d7d",
"bo c #f27e7c",
"bN c #f28181",
"an c #f2957e",
"fD c #f2cbbb",
"kd c #f2dccd",
"c9 c #f37d7d",
"#8 c #f38472",
"ab c #f38686",
"aF c #f38989",
"aZ c #f3a181",
"a0 c #f3a37d",
"kb c #f3ddcf",
"g3 c #f3e6da",
"#k c #f47b7c",
"c7 c #f47c7c",
"#z c #f47c7e",
"bV c #f47d7d",
"bZ c #f48181",
"cZ c #f48383",
"a1 c #f4a77b",
"ao c #f4b893",
"ll c #f4c6b2",
"#l c #f57b7c",
"aC c #f57d7b",
"br c #f57d7c",
"a9 c #f57d7e",
"aY c #f5a389",
"k1 c #f5c9b3",
"ho c #f5e5da",
"bP c #f67e7e",
"aR c #f67f7a",
"#F c #f6837d",
"#E c #f6847e",
"#5 c #f6b17e",
"ln c #f6ceb9",
"hy c #f6d6c5",
"ht c #f6ebe0",
".Y c #f77d7d",
".n c #f77d7e",
"bO c #f78080",
"am c #f7827a",
"bY c #f78383",
"lm c #f7cdb8",
"hn c #f7d8c7",
"ib c #f7e5d8",
"iZ c #f7e8db",
"iY c #f7e9dc",
"kc c #f7e9dd",
"iB c #f7eadd",
"#K c #f87c7d",
"a# c #f87d7c",
"#L c #f87e7e",
"cH c #f88382",
"bw c #f88383",
"h# c #f8decd",
"g. c #f8e2d3",
"fG c #f8e4d5",
"hx c #f8e7db",
"jq c #f8e9dd",
"iC c #f8eadd",
"i0 c #f8eade",
"#m c #f97d7d",
"bq c #f97d7e",
"#M c #f98686",
"bi c #f98c8d",
"aX c #f9a991",
"#4 c #f9b883",
"#3 c #f9b884",
"av c #f9ce7c",
"fC c #f9decd",
"gY c #f9e0d0",
"hV c #f9e2d4",
"g# c #f9e6d9",
"ic c #f9e9dd",
"hs c #f9eadd",
"ia c #f9ebdf",
"iA c #f9ece0",
"#g c #fa7e7e",
"#p c #fa7f80",
"bk c #fa8787",
"cx c #fa8988",
"b3 c #fa8989",
"bI c #fa8f8f",
"#0 c #faa68f",
"#1 c #fab28f",
"#2 c #fab688",
"aV c #faba9a",
"ap c #fad7ab",
"f9 c #fae5d7",
"if c #fae6d8",
"hO c #fae8da",
"f8 c #faeadd",
"hR c #faebde",
"i2 c #faecdf",
"jo c #faece0",
"hQ c #faede0",
"i1 c #faede1",
"jp c #faeee2",
".F c #fb7e7e",
"bp c #fb7e7f",
"#G c #fb827d",
"cc c #fb8a8a",
"bj c #fb8e8e",
"#Z c #fb9489",
"aW c #fbb297",
"hU c #fbe8da",
"hT c #fbe9dc",
"ie c #fbeadd",
"hS c #fbecdf",
"id c #fbece0",
"ga c #fbede0",
"gC c #fbede1",
"hP c #fbeee1",
"gB c #fbeee2",
"g4 c #fbefe2",
"g5 c #fbefe3",
"#n c #fc7e7e",
"#J c #fc7f7f",
"#H c #fc807d",
"au c #fcd07f",
"at c #fcd184",
"as c #fcd493",
"#I c #fd7f7e",
"#o c #fd7f7f",
"#X c #fd817f",
"#D c #fd8680",
"#Y c #fd8882",
"aP c #fd8a89",
"ar c #fddba3",
"#W c #fe7f7e",
".m c #fe7f7f",
"aQ c #fe8181",
"#A c #fe8280",
"#B c #fe8480",
"#C c #fe8580",
"al c #fe8989",
"aq c #fee0af",
".l c #ff7f7f",
"Qt.#.a.b.c.d.e.f.g.h.i.j.k.l.l.l.l.l.m.n.o.p.q.r.s.t.u.v.w.x.y.z",
".a.b.A.d.e.f.g.B.C.D.E.l.l.l.l.l.l.m.F.G.H.I.J.K.L.M.w.N.y.O.P.Q",
".R.d.e.S.T.U.V.W.X.m.l.l.l.l.l.l.m.Y.Z.0.1.2.3.4.5.6.7.8.9.Q#.##",
".e#a.T#b#c#d#e#f.l.l.l.l.l.l.l.m#g#h#i#j#k#l#m#n#o#p#q#r#.###s#t",
".g#u#v#w#x#y#z.l.l.l.m.m#A#B#C#D#E#F#G#H#I.m#o#J#K#L#M#N#O#t#P#Q",
"#v#R#S#T#U#V.l.l#W#X#Y#Z#0#1#2#3#4#5#6#7#8#9a.a##kaaabacadaeafag",
"#Sahaiajakal.l#IamanaoapaqarasatauavawaxayazaAaBaCaDaEaFaGaHaIaJ",
"aKaLaMaNaOaPaQaRaSaTaUaVaWaXaYaZa0a1a2a3a4a5a6a7a8a9b.b#babbbcbd",
"bebfbgbhbibjbkblbmbnbo#g#o.F#m.Y#m#nbpbqbrbsbtbubvbwbxbybzbAbBbC",
"bDbEbFbGbHbIbJbKbLbMbNbObPbQbRbSbTbUbVbWbXbYbZb0b1b2b3b4b5b6b7b8",
"b9c.c#cacbcccdcecfcgchcicjckclcmcncocpcqcrcsctcucvcwcxcyczcAcBcC",
".rcDcEcFcGcHb4cIcJcKcLcMcNcOcPcQcRcScTcUbLcVcWcXcYbKcZc0c1c2c3c4",
".tc5c6c7c8c9d.d#dadbdcdddedfdgdhdidjdkdldbdmdndodidpdqdrdsdtdudv",
".vdwdxdydzdAdBdCdDdEdFdGdHdIdJdhdKdLdMdNdOdPdQdRdSdTdUdVcIdWdXdY",
".xdZd0d1d2d3d4d5d6d7d8d9e.e#eaebecedeeefegeheiejekelemeneoepeqer",
".OeseteuevewexeyezeAeBeCeDeEeFeGeHeIeJeKeLeMeNeOePeQeReSeTeUeVeW",
".QeXeYeZe0e1e2e3e4e5e6e7e8e9f.f#fafbfcfdfefffgfhfifjfkdbflfmfnfo",
"##fpfqfrfsftfufvfwfxfyfzfAfBfCfDfEfFfGfHfIfJfKfLfMfNfOfPfQfRfSfT",
"fUfVfWfXfYfZf0f1f2f3f4f5f6f7f8f9g.g#gagbgcgdgegfggghgigjgkglgmgn",
"gogpgqgrgscegtgugvgwgxgygzgAgBgBgCgCgBgDgEgFgGgHgIgJgKgLgMgNgOgP",
"gQgRgSgTgUgVgWgXgYgZg0g1g2g3gCg4g5g5g5g6g7g8g9h.h#hahbhcgkd#hdhe",
"hfhghhhihjhkhlhmhnhohphqhrhsgag4g5g5g5hthuhvhwhxhyhzhAhBhChDhEhF",
"hGhHhIhJhKgLhLhMhNhOg5gBgCgChPhQhRgag5gBhShThUhVhWhXhYhZdTh0h1h2",
"h3h4h5h6h7h8h9cOi.i#gCg5g5g5g5iaibicg5gBidieifigihiiijikiliminio",
"ipiqirisitiuiviwixiyizgBg5g5iAiBhsiCiAg4hPf8iDiEiFiGiHiIhiiJiKiL",
"iMiNiOiPiQiRiSiTiUiViWiXgBg5iAiYiZi0i1g5i2i3i4i5i6i7i8i9j.j#jajb",
"c4jcjdjejfjgjhjijjjkjljmjnjojpi1i1i1jpjqjrjsiFjtjujvjwjxjyjzjAjB",
"dvjCjDjEjFjGjHjIjJjKjLjMjNjOjqg5g5g5ibjPjQjRjSjTjUjVjWjXjYjBjZj0",
"j1jEerj2j3j4foj5j6j7j8j9k.k#kakbkckdkekfkgkhkikjkkklkmknkokpkqkr",
"erj2j3ksfoj5j6ktkukvkwkxkykzkAkBkCkDkEkFkGkHkkkIkmknjZkpkJkKkLkM",
"eWkNfokOkPkQkRkSkwkTkUkVkWkXkYkZk0k1k2k3k4k5k6knjZk7kJk8k9l.l#la",
"j5j6kPkukvlblckTldlelflglhliljlklllmlnlolplqlrkJkqlsltlul#lvlwlx"};
