/* XPM */
static char * thequestion_xpm[] = {
"32 32 256 2",
"  	c None",
". 	c #20282B",
"+ 	c #1D3743",
"@ 	c #173295",
"# 	c #563020",
"$ 	c #1A389C",
"% 	c #592C38",
"& 	c #4C2E51",
"* 	c #323380",
"= 	c #173EA0",
"- 	c #0D45A6",
"; 	c #273C92",
"> 	c #48326F",
", 	c #3D4140",
"' 	c #1F4B5F",
") 	c #024DAD",
"! 	c #66371A",
"~ 	c #433970",
"{ 	c #703225",
"] 	c #2244A0",
"^ 	c #6C3A17",
"/ 	c #4A3784",
"( 	c #703818",
"_ 	c #833018",
": 	c #443F74",
"< 	c #1051AB",
"[ 	c #1E4CA7",
"} 	c #753C15",
"| 	c #0559B2",
"1 	c #674224",
"2 	c #7B3B18",
"3 	c #304F98",
"4 	c #1C55B0",
"5 	c #2752A7",
"6 	c #814016",
"7 	c #3E4D8E",
"8 	c #135CB6",
"9 	c #1F58AC",
"0 	c #3A4E9F",
"a 	c #2D54A3",
"b 	c #3451A8",
"c 	c #28607A",
"d 	c #165FB2",
"e 	c #884514",
"f 	c #933F17",
"g 	c #724B38",
"h 	c #8C402F",
"i 	c #3C51AF",
"j 	c #275CB1",
"k 	c #216889",
"l 	c #8F4618",
"m 	c #1F64B0",
"n 	c #1269BB",
"o 	c #2163B7",
"p 	c #2C60AF",
"q 	c #4F529B",
"r 	c #92481A",
"s 	c #5052A6",
"t 	c #964B16",
"u 	c #3860AA",
"v 	c #3B5FB0",
"w 	c #415FA2",
"x 	c #2868B6",
"y 	c #415EA9",
"z 	c #625D58",
"A 	c #1C70BC",
"B 	c #2A6BB2",
"C 	c #3467AF",
"D 	c #9B4F1A",
"E 	c #994B37",
"F 	c #3B66A7",
"G 	c #A04E1C",
"H 	c #A35016",
"I 	c #2473B9",
"J 	c #7A537B",
"K 	c #6056B2",
"L 	c #306FB6",
"M 	c #2E7697",
"N 	c #895756",
"O 	c #A7531A",
"P 	c #2875C2",
"Q 	c #3470BE",
"R 	c #875D44",
"S 	c #2A76BD",
"T 	c #AE4D38",
"U 	c #AB561D",
"V 	c #746B44",
"W 	c #945D38",
"X 	c #2C7ABA",
"Y 	c #217EC3",
"Z 	c #3776B7",
"` 	c #2280C0",
" .	c #A65A29",
"..	c #4F70A3",
"+.	c #9A5B49",
"@.	c #AE5920",
"#.	c #307EB7",
"$.	c #B15A1A",
"%.	c #1889C7",
"&.	c #4A7A91",
"*.	c #327EBE",
"=.	c #347DC4",
"-.	c #2B84C4",
";.	c #B55E1E",
">.	c #657291",
",.	c #417FB4",
"'.	c #3683BD",
").	c #8C628F",
"!.	c #2D89C2",
"~.	c #677881",
"{.	c #727771",
"].	c #837167",
"^.	c #BA6222",
"/.	c #C25843",
"(.	c #3A86C0",
"_.	c #547EA9",
":.	c #2591C9",
"<.	c #4286B5",
"[.	c #C8593E",
"}.	c #B36732",
"|.	c #4C85AC",
"1.	c #328FC1",
"2.	c #C26326",
"3.	c #BF6626",
"4.	c #3F8CC0",
"5.	c #3890C9",
"6.	c #3694C0",
"7.	c #C6672A",
"8.	c #3893C5",
"9.	c #2D98CA",
"0.	c #846EBE",
"a.	c #7177C3",
"b.	c #4D8DB0",
"c.	c #5686C7",
"d.	c #C56B2B",
"e.	c #AC715D",
"f.	c #AF734B",
"g.	c #399ABF",
"h.	c #94843F",
"i.	c #4594C2",
"j.	c #CA6E27",
"k.	c #BC713E",
"l.	c #3C99C5",
"m.	c #8C845C",
"n.	c #339FCA",
"o.	c #A07B64",
"p.	c #3F9BC7",
"q.	c #389FD1",
"r.	c #5E93AA",
"s.	c #CC7231",
"t.	c #429DC9",
"u.	c #41A0C6",
"v.	c #4F9BBC",
"w.	c #D37737",
"x.	c #7195A3",
"y.	c #7F8EAC",
"z.	c #7A949B",
"A.	c #8B908D",
"B.	c #7F988C",
"C.	c #C2824D",
"D.	c #7991C9",
"E.	c #D97C3B",
"F.	c #9F8E83",
"G.	c #C2826F",
"H.	c #9B8BAA",
"I.	c #D8813D",
"J.	c #AB9940",
"K.	c #A59862",
"L.	c #C48A63",
"M.	c #C29149",
"N.	c #90A27A",
"O.	c #AB9D53",
"P.	c #DE8743",
"Q.	c #B79F37",
"R.	c #BF9076",
"S.	c #B4957D",
"T.	c #A490C9",
"U.	c #B69B64",
"V.	c #8BAA94",
"W.	c #949AD2",
"X.	c #A0AA6F",
"Y.	c #B39F92",
"Z.	c #91AAB6",
"`.	c #AFA680",
" +	c #D39E78",
".+	c #A8ACA9",
"++	c #B2A9A8",
"@+	c #CAB338",
"#+	c #DA9D89",
"$+	c #C9B346",
"%+	c #C0B265",
"&+	c #C8A790",
"*+	c #CFB62E",
"=+	c #B9A4CD",
"-+	c #C5B459",
";+	c #D5A685",
">+	c #C4AD9E",
",+	c #C3B47E",
"'+	c #D8AF92",
")+	c #D2B39E",
"!+	c #DEC52A",
"~+	c #D2B7A8",
"{+	c #DEC73F",
"]+	c #CBBCB5",
"^+	c #DBC65F",
"/+	c #DFC84D",
"(+	c #D4C196",
"_+	c #D8C76B",
":+	c #DDBC9C",
"<+	c #C0C8B0",
"[+	c #BCC6CB",
"}+	c #E0CA56",
"|+	c #D8BEAF",
"1+	c #DCBEA9",
"2+	c #DAB8D8",
"3+	c #DBCA92",
"4+	c #DFC4B5",
"5+	c #E6D063",
"6+	c #E3D16A",
"7+	c #D9CCA6",
"8+	c #EFD635",
"9+	c #E0D181",
"0+	c #E3D372",
"a+	c #E2D379",
"b+	c #E5C7B2",
"c+	c #DACAC1",
"d+	c #E2C4D3",
"e+	c #E6CBBC",
"f+	c #F1DA52",
"g+	c #EFDC6D",
"h+	c #EDCFBA",
"i+	c #EEDC74",
"j+	c #F3DE69",
"k+	c #E6D3C8",
"l+	c #F5DF62",
"m+	c #F3CFC3",
"n+	c #E8D8B1",
"o+	c #EED2C3",
"p+	c #EFDF7F",
"q+	c #EAD5C4",
"r+	c #F0D0DD",
"s+	c #E0DAD6",
"t+	c #F0E28E",
"u+	c #EFDAC9",
"v+	c #F5D8C9",
"w+	c #F0E499",
"x+	c #EEDBD0",
"y+	c #F9E67C",
"z+	c #F3E4A9",
"A+	c #FAE98A",
"B+	c #FADECF",
"C+	c #F6E1D0",
"D+	c #E6E7E5",
"E+	c #F6E3D8",
"F+	c #FDEADE",
"G+	c #212320",
"                  t l e e l l e                                 ",
"              D H U G D D t r t l e 6                           ",
"          O $.H @.;.@.U @.O D G t t l 6                         ",
"        O @.^.@.2.3.U U 2.@.@.$.H D G e 2                       ",
"        ^.7.7.d.7.s.$.@.w.2.j.j.O H O D 6 (                     ",
"      s.I.s.j.w.s.I.;.^.P.j.P.w.;.O e O t 6                     ",
"      P.P.E.I.I.j.I.@.2.E.j.d.s.^.$.O } G D 6                   ",
"      w.7.7.^.^.@.3.l 7.d.I.2.2.^.$.2.} r D e                   ",
"    E.j.@.$.O H O ^.l ;. +^.7.@.1+d.@.O e H l                   ",
"    I.j.U O U  .t 7.U G @._ f h e.)+D U 6 t l                   ",
"    E.7.U H U  . .2.;.u+k.C+C+v+h+b+&+D e D t 6                 ",
"    E.2.O D e+v+B+C+B+E+E+F+x+z.v+b+)+D t D l 6                 ",
"      ^.b+o+u+k+x+E+F+F+F+Z..+G+k h+)+O l D l }                 ",
"      $. .v+D+' A.F+F+F+F+[++ . k h+)+G r H l 6                 ",
"        $.q+Z.G+c ]+F+F+E+D+k k C+o+1+H l D r                   ",
"        2.L.D+k c ]+F+F+F+F+F+F+E+o+1+H l r 6                   ",
"          O C+E+k+]+F+F+F+D+F+F+E+o+1+U 6 t }                   ",
"          $.v+F+E+k+c+F+F+F+E+E+B+e+1+U 2 e }                   ",
"          $.h+E+F+F+F+F+F+F+E+E+v+b+&+O } e 6                   ",
"            G E+F+F+F+F+h [.G.C+o+b+S.G l 6 }                   ",
"            $.e F+F+F+F+E+E+C+q+o+1+&+G U 2 2 ( (   (           ",
"            r ;.l &+C+C+C+B+u+e+1+b+9+e $.H l 6 2 ( ! !         ",
"              ^.2.l ^ } e+b+b+n+w+p+6+g D $.@.* t 6 ( !         ",
"                ^.^.e ( a & A+!+a+i+n+|+W U '.C d p 0 ! (       ",
"                    ;.m 9 A+$+$+_+%+A+z+e+I #.8.l.i.4.!.'.      ",
"                    u.1.3+5+^+a+_+`.|+0+]+9 < t.v.i.i.4.'.      ",
"                  v.u.Z i+^+^+$+t+A+C+X O.< u.n.n.t.p.i.(.L     ",
"                i.p.i.N.O.i+a+]+A+A+<.8.h.l.t.8.n.n.n.i.4.S     ",
"                i.p.8.v.6.9+{+~+!+w+<.u.^+u.t.(.l.v.v.l.4.Z     ",
"                4.4.4.l.i+6+<.9 5+/+6+*+i.u.n.*.4.p.t.8.4.Z     ",
"                ,.*.!.l.1.i+Z u.6+6+*.t.u.u.p.4.X i.p.8.!.A     ",
"                '.Z 8.v.f+y+p.n.y+(+u.u.u.u.p.!.C 8.i.4.Y p     "};
