/* XPM */
static char *dummy[]={
"32 32 623 2",
"dg c #1e2542",
"ey c #253141",
"c3 c #262f55",
"di c #273059",
"fc c #27333f",
"dj c #283157",
"dh c #28315b",
"ee c #292229",
"cU c #2a3460",
"dp c #2b3663",
"cV c #2c3664",
"fs c #314254",
"eB c #322d37",
"dq c #343c60",
"ez c #35313d",
".2 c #364b60",
"do c #383e60",
".N c #395067",
"aR c #3c5672",
"#1 c #3c5a78",
"#3 c #3d5874",
"eg c #3e2a30",
".F c #3e5c79",
"hj c #3f3f3f",
"dJ c #3f476e",
"aw c #3f5b76",
"eR c #412f36",
"ah c #415a74",
".k c #415f7d",
"fd c #416080",
".5 c #42617f",
"#i c #44627f",
"dE c #454e74",
"ft c #455d73",
"eT c #456586",
"#D c #465f77",
"cT c #474751",
"ai c #47596b",
"bE c #496886",
".H c #496c8e",
"fe c #4a698c",
".x c #4b647d",
".n c #4b6680",
"dD c #4c5478",
"gy c #4c6167",
"d# c #4c6f94",
".a c #4c7093",
"bc c #4c7197",
"ba c #4d4c5f",
"aT c #4d565f",
"gf c #4d749a",
"eQ c #4e343a",
".v c #4e759c",
"bD c #4e769d",
"fC c #4f667b",
".u c #505961",
"he c #50779f",
"eP c #523b45",
"ay c #525a63",
"#l c #525b63",
"hy c #526a81",
"fA c #527aa3",
"dv c #536380",
"bd c #555453",
"d. c #5682ad",
"dQ c #5782ae",
"cL c #5783af",
"cK c #5884b0",
"d4 c #593438",
"eC c #59383a",
".3 c #5985b2",
"#j c #5a87b4",
"#F c #5a88b5",
"d5 c #5b4856",
"e9 c #5b4f42",
"ax c #5b88b6",
"ef c #5b89b7",
"fB c #5c8ab8",
"#E c #5c8ab9",
"bC c #5c8bb9",
"eV c #5d8bba",
"hx c #5d8cbb",
"b0 c #5e8cbb",
".l c #5e8dbc",
"cn c #5e8dbd",
"aS c #5e8ebd",
"ff c #5f8ebe",
".O c #5f8fbf",
"eS c #60424c",
".P c #606162",
"#h c #606a74",
"fX c #6090c0",
"bB c #6091c1",
"bA c #614955",
"fW c #616b55",
"gT c #6191c1",
".G c #6191c2",
"b1 c #6192c2",
".4 c #6192c3",
"dS c #625a6f",
"eW c #626a50",
"eU c #6292c3",
".m c #6293c4",
"bb c #6294c5",
".w c #6394c5",
".# c #6394c6",
"#k c #6395c6",
"dR c #6395c7",
"#2 c #6495c7",
"Qt c #6496c8",
"ev c #653b40",
"eA c #654752",
".j c #666b6f",
".b c #686867",
"c4 c #696e86",
"dF c #6c708b",
"dI c #6e748f",
"fY c #6e787f",
"ho c #716a6e",
"c2 c #726f78",
"gS c #727852",
"ew c #734348",
"#0 c #746c63",
"g5 c #74797c",
"cW c #757b94",
"#G c #777068",
"gY c #7a7260",
"bZ c #7c4d55",
"hS c #7c7d4e",
"fb c #7d7341",
"gg c #7d8281",
"eh c #7e494e",
"cu c #7f797a",
"cv c #7f7c83",
"gz c #7f888d",
"c6 c #805758",
".E c #807b77",
"hq c #818686",
"hk c #828282",
"gH c #847376",
"#C c #84817f",
"e8 c #868685",
"g2 c #878b79",
"gu c #887969",
"hp c #898386",
"dP c #8a4a4d",
"hd c #8b884b",
"#X c #8c555a",
"fo c #8c8132",
"#g c #8c8782",
"g# c #8d837c",
"bF c #8e5e64",
"dr c #8e8881",
"an c #8f5a5d",
"hw c #8f8b4a",
"gO c #908279",
"ag c #90877d",
"fg c #908c4a",
"aC c #915e61",
"cD c #926265",
"fQ c #928b81",
"dK c #9296a9",
"cm c #935358",
"aB c #93746f",
"gt c #93867c",
"be c #93887c",
"dC c #949298",
"g3 c #968081",
".I c #968b80",
"eN c #976263",
"aj c #978c80",
"hJ c #97928d",
"hl c #979797",
"eb c #98585e",
".p c #988d81",
".o c #988e83",
"fz c #989048",
"gI c #989793",
"cF c #995b60",
"et c #995e63",
"hm c #999999",
"bk c #9a6968",
"hs c #9a8d82",
"#Y c #9b8d81",
"ek c #9c5e5f",
"b2 c #9c6069",
"#Z c #9c9083",
"hi c #9c9c9c",
"eO c #9d5c61",
"bn c #9d6967",
"a0 c #9e5b60",
"el c #9e5b61",
"hI c #9e9476",
"gU c #9e9d96",
"co c #9f5a5f",
"#9 c #9f6565",
"am c #9f7d7a",
"#8 c #9f807c",
"fM c #9f987e",
"ex c #a05659",
"ec c #a05c63",
"ej c #a05d62",
"eu c #a05d63",
"hN c #a09085",
"h# c #a09186",
"gX c #a0a0a0",
"c7 c #a15b61",
"aD c #a15d64",
"d7 c #a15e63",
"bR c #a16a6b",
"hO c #a19186",
"ci c #a25b60",
"bl c #a25d62",
"g4 c #a28586",
"hP c #a2917b",
"#4 c #a29587",
"d2 c #a35f66",
"cJ c #a4595c",
"ei c #a45f66",
"gN c #a49388",
"aV c #a49789",
".y c #a4978a",
".z c #a4988c",
".M c #a49b91",
"aW c #a58980",
"hL c #a59589",
"aU c #a5988a",
"aX c #a66067",
"b7 c #a67674",
"hr c #a6968a",
".c c #a69a8d",
"fI c #a69f72",
".6 c #a7998b",
"av c #a85b5a",
"db c #a86168",
"gG c #a8a565",
"cM c #a95b5e",
"dy c #a96168",
".K c #a99d91",
"bs c #aa6064",
"bp c #aa7e77",
"#x c #aa988f",
"aA c #aa9b8d",
"d6 c #ab6268",
"#w c #ab988f",
"ht c #ab9a8e",
"#y c #ab9a91",
"hn c #abaead",
"aY c #ac6269",
"#v c #ac9a91",
"hK c #ac9d92",
"e4 c #aca39b",
"dU c #ad7273",
"bg c #ad8b84",
"cs c #ad8c87",
"g6 c #ad9d91",
"hD c #adadad",
"#W c #ae6267",
"fr c #ae9288",
"#z c #aea196",
"bQ c #af696b",
"a5 c #af6d6d",
"#L c #af9a91",
"gM c #afa094",
"go c #afa487",
".1 c #afa499",
"du c #b05c5f",
"by c #b06166",
"hM c #b09e92",
".i c #b0a59b",
"f. c #b18d5b",
"#u c #b1a197",
"az c #b1a394",
"bY c #b25a5a",
"bz c #b25b5c",
"cO c #b2646a",
"cd c #b27c7c",
"dw c #b3646a",
"cA c #b38182",
"#M c #b3857f",
"c5 c #b3a79f",
"hE c #b3b3b3",
"c9 c #b45e61",
"bV c #b46064",
"dN c #b4656b",
"cy c #b48380",
"ga c #b49466",
"eM c #b4a09a",
"h. c #b4a295",
"bf c #b4a696",
"eE c #b4a85d",
"#. c #b4a89b",
".g c #b4a89c",
"dx c #b5656b",
"bv c #b56967",
"bM c #b57574",
"dM c #b58283",
"af c #b5847d",
"cc c #b5958f",
"ha c #b59c5f",
"g9 c #b5a396",
"g1 c #b5a973",
"hC c #b5b5b5",
"da c #b66368",
"dc c #b6666b",
"cg c #b66d70",
"bU c #b6746f",
"bo c #b67771",
"bJ c #b68882",
"ea c #b69390",
"ds c #b69792",
"eD c #b6a34c",
"## c #b6aa9e",
"cG c #b76265",
"fp c #b7988c",
"bT c #b86265",
"aE c #b8666c",
"b# c #b95f61",
"ao c #b9656a",
"cp c #b9666c",
"bm c #b96967",
"dA c #b98584",
"bO c #b9948d",
"#7 c #b9a99e",
"cB c #ba7b79",
"#H c #baab9b",
"#I c #baac9d",
"#p c #baada0",
"fP c #bab9b5",
"#N c #bb7471",
"dT c #bc686d",
"gZ c #bcab75",
".Q c #bcad9d",
"#t c #bcaea3",
".R c #bcafa1",
"#A c #bcafa3",
"b. c #bd686c",
"bt c #bd7774",
"e3 c #bdac5b",
"al c #bdaca1",
"#a c #bdb1a4",
"ck c #be6265",
"bK c #be6568",
"gP c #bea160",
"g0 c #beac6b",
"#q c #beb1a5",
"eI c #beb47c",
"bX c #bf666a",
"bh c #bf696e",
".9 c #bfb2a5",
"dW c #bfb9b8",
"b4 c #c0696e",
"c1 c #c07476",
"de c #c08e8b",
"fu c #c09a65",
"em c #c09c77",
"ge c #c0b148",
"hF c #c0b57f",
"g8 c #c0b9b1",
"#B c #c1b5a8",
"dt c #c26a6f",
"c0 c #c29d9a",
"hu c #c2a95c",
"#5 c #c2b3a4",
".t c #c2b5a9",
"gs c #c2bbb5",
"fR c #c39d69",
"#m c #c3b4a4",
"cw c #c3bbb7",
"fG c #c3be9e",
"#O c #c46968",
"cR c #c48d89",
"cC c #c4bab2",
".h c #c5b8ab",
"hf c #c5c0b2",
"cH c #c66464",
"#V c #c66b70",
"fD c #c6b44d",
".J c #c6b7a7",
"#o c #c6b9ab",
"fZ c #c6bfa6",
"bS c #c7938c",
"gi c #c7ab77",
"#f c #c7baae",
"eX c #c7bf99",
"g7 c #c7c3bc",
"a2 c #c87572",
"a4 c #c87c78",
"cr c #c88782",
"#b c #c8bbae",
"gB c #c8bca3",
"dL c #c8bfb6",
"a. c #c9686a",
"cN c #c96c70",
"a7 c #c96d6d",
".s c #c9bbae",
"eH c #c9c2a4",
"aZ c #ca6a6c",
"ed c #cb6c70",
"dz c #cb6d71",
".7 c #cbbdb0",
"aQ c #cc6869",
"ca c #ccb5ad",
".X c #ccbfb2",
"a8 c #cd6c6c",
"bG c #cd6e72",
"cb c #cd7272",
".r c #cdc0b2",
"fh c #cdc8ac",
"cP c #ce6e72",
"gj c #ceab63",
"ct c #ceb0a9",
"dV c #cec6c3",
"bq c #cf7776",
"b6 c #d07f7b",
"fa c #d0b25a",
"cY c #d0c1b8",
"#K c #d0c2b4",
".W c #d0c3b5",
"dd c #d16f73",
"b8 c #d18a88",
".A c #d1c2b4",
"e0 c #d1c36a",
"df c #d1c6bc",
"ep c #d1cdc9",
"d3 c #d26f73",
"c. c #d2b2ab",
"#s c #d2c4b7",
"fO c #d2cac1",
"cl c #d36969",
"f# c #d3b063",
"aK c #d46f70",
"fv c #d4ab6d",
".Y c #d4c7b9",
"gh c #d4cebc",
"cj c #d56c6c",
"#U c #d57074",
"bI c #d57371",
".B c #d5c8ba",
".S c #d6c8ba",
"#c c #d6c9bb",
"dZ c #d6cecb",
"#P c #d76d6d",
"cQ c #d77174",
".V c #d7c9bc",
"gv c #d8b368",
"eF c #d8c350",
"eG c #d8c552",
"ak c #d8c9ba",
"fF c #d8d8d8",
"ae c #d96d6e",
"bi c #d97275",
"dn c #d9c5bd",
".C c #d9cbbd",
"hG c #d9cc73",
"aI c #da7275",
"fE c #dad094",
"g. c #dadad9",
"aO c #db7275",
"gb c #dbb66a",
"eZ c #dbce7e",
"bw c #dc7376",
"fS c #dcb769",
"fn c #dcca4f",
"hh c #dcdcdb",
"ch c #dda099",
"fw c #ddb869",
"f5 c #ddcd62",
"#r c #ddcfc0",
".Z c #ddcfc1",
"f8 c #dddbd5",
"bL c #deb5ab",
"fq c #deb6a9",
"c# c #deccc2",
"#n c #ded0c1",
"e5 c #ded2c7",
"er c #ded6ce",
"hz c #ded8c8",
"gJ c #dedbd9",
"e2 c #dededb",
"fN c #dfcdc4",
"cq c #e07477",
"eo c #e0d4b5",
"cx c #e0d4c9",
"cX c #e0d6ce",
"aJ c #e17475",
"au c #e17477",
"#T c #e17577",
"cE c #e1bdb3",
"#J c #e1d3c4",
"bW c #e27070",
"bP c #e27374",
"b3 c #e27577",
"cz c #e2d0c5",
"fk c #e2d278",
"en c #e2d280",
".8 c #e2d3c4",
"bu c #e37476",
"a3 c #e37576",
"dm c #e3d3c9",
".U c #e3d4c6",
"eJ c #e3d6c1",
"gp c #e3e0dd",
"a1 c #e47577",
"dO c #e47578",
"bN c #e4c5b9",
"d1 c #e4d4ca",
".q c #e4d5c6",
".f c #e4d6c7",
"gr c #e4e4e4",
"c8 c #e57577",
"aP c #e57678",
"b9 c #e5d4c9",
".0 c #e5d6c8",
"dY c #e5dbd4",
"hA c #e5e0d2",
"fl c #e5e5e4",
"br c #e67678",
"hQ c #e6c95f",
"#e c #e6d7c8",
"dk c #e6dbd1",
"hg c #e6e1d4",
"hH c #e7d55c",
".L c #e7d8c9",
"#d c #e7d8ca",
".D c #e7d9ca",
"es c #e7dbd0",
"f7 c #e7e5e1",
"aF c #e87779",
"cf c #e8cfc4",
"f1 c #e8d46d",
"cS c #e8d6cb",
".d c #e8d9ca",
".T c #e8d9cb",
"e7 c #e8ddd2",
"f6 c #e8e5df",
"ap c #e97779",
"#S c #e97879",
"#6 c #e9dacb",
"eq c #e9e6e4",
"#Q c #ea7778",
"f0 c #eacc62",
".e c #eadbcc",
"f9 c #eae7e2",
"b5 c #eb7879",
"gc c #ebcd62",
"e6 c #ebdfd4",
"bx c #ec7575",
"fT c #edcf62",
"gQ c #edd061",
"dX c #ede2d7",
"gV c #edeae1",
"gK c #ededed",
"#R c #ee797a",
"fx c #eed261",
"fH c #eeda6c",
"fj c #efe9be",
"hb c #f0d55f",
"gC c #f1d95c",
"d8 c #f1e2d7",
"gA c #f1efe8",
"aM c #f27979",
"a9 c #f27a7b",
"fK c #f2de56",
"f3 c #f2de58",
"dB c #f2e6db",
"e. c #f2e7db",
"f2 c #f2e8a7",
"bj c #f37979",
"aG c #f37a7a",
"ar c #f37b7c",
"eL c #f3e7dc",
"gW c #f3f3f3",
"aN c #f47b7b",
"hv c #f4db5d",
"hB c #f4f3f1",
"at c #f57b7c",
"aH c #f57c7c",
"d9 c #f5e9dd",
"eY c #f5f3ee",
"f4 c #f6e257",
"gL c #f6f5f4",
"bH c #f77c7d",
"fy c #f7df5c",
"gF c #f7e358",
"a# c #f87c7d",
"hR c #f8e05b",
"e# c #f8ece0",
"e1 c #f8f6f2",
"cI c #f97c7c",
"a6 c #f97d7d",
"gw c #f9e15b",
"gR c #f9e25b",
"gn c #f9e458",
"cZ c #f9ede1",
"d0 c #f9eee3",
"fJ c #f9f5d9",
"ac c #fa7d7e",
"gl c #fae35b",
"hc c #fae45a",
"gd c #fae45b",
"fV c #fae559",
"gx c #fae658",
"dG c #faeee2",
"dH c #faefe3",
"ce c #fb7d7d",
"aL c #fb7e7e",
"fU c #fbe45a",
"gm c #fbe65a",
"dl c #fbefe3",
"eK c #fbf0e5",
"fm c #fbfbfa",
"aq c #fc7e7e",
"gD c #fce65a",
"gk c #fce759",
"ad c #fd7e7e",
"as c #fd7e7f",
"gE c #fde759",
"fL c #fde859",
"aa c #fe7f7f",
"ab c #ff7f7f",
"fi c #fffffe",
"gq c #ffffff",
"QtQtQtQtQtQtQtQt.#.a.b.c.d.e.f.g.h.i.j.k.lQtQtQtQtQtQtQtQtQtQtQt",
"QtQtQtQtQtQtQt.m.n.o.p.q.e.e.e.e.r.s.e.t.u.v.#QtQtQtQtQtQtQtQtQt",
"QtQtQtQtQtQt.w.x.y.z.A.e.e.e.e.e.e.B.C.e.D.E.F.GQtQtQtQtQtQtQtQt",
"QtQtQtQtQtQt.H.I.J.K.e.e.e.e.e.e.e.e.C.L.e.e.M.N.OQtQtQtQtQtQtQt",
"QtQtQtQtQt.l.P.Q.R.S.e.e.e.e.e.T.U.V.W.X.Y.Z.0.1.2.3.4QtQtQtQtQt",
"QtQtQtQtQt.5.6.Q.7.e.e.8.9#.###a#b#c.U#d.d.L#e.d#f#g#h#i#j#kQtQt",
"QtQtQtQt.m#l.Q#m#n#o#p#q#r.e.e.e.e.0#s#t#u#v#w#x#y#z#A#B#C#D#EQt",
"QtQtQtQt#F#G#H#I#o#J.e.e.d#K#L#M#N#O#P#Q#R#S#T#U#V#W#X#Y#Z#0#1#2",
"QtQtQt.m#3#4#5#6.e.U#7#8#9a.a#aaababababababababacadaeafagah.OQt",
"QtQt.laiaj.Qakalamanaoapaqarasaqabatabababababasaaauacavaw.mQtQt",
"QtaxayazaAaBaCaDaEaFaGaHaIadaJaqaK#QaqaLabaMabaNabaOaPaQaR#2QtQt",
"aSaTaUaVaWaXaYaOaaabaZa0a1a2a3a4a5aaaua6aba7asa8aHa9b.b#babbQtQt",
"bcbdbebfbgbhbiababbjbkblbmbnbobpbqbrbsaLabbtbubvbwbxbybzbAbBQtQt",
"#kbCbDbEbF#RbGabbHbIbJbKbLbMbNbObPbQbRaaabbSbTbUbVbWbXbYbZb0QtQt",
"QtQtQtb1b2b3b4asb5b6b7b8b9c.c#cacbcccdaacecfcgchcicjckclcmaxQtQt",
"QtQtQtcnco#UcpapcqcrcsctcucvcwcxcyczcAa6cBcCcDcEcFcGcHcIcJcKQtQt",
"QtQtQtcLcMcNcOcPcQcRcScTcUcVcWcXcYcZc0c1c2c3c4c5c6c7c8abc9d.QtQt",
"QtQtQtd#dabhdbdcdddedfdgdhdidjdkdldldmdndodpdqdrdsaXdtacdud.QtQt",
"QtQtQtdvdwdxaXdydzdAdBdCdDdEdFdGdldldldHdIdJdKdLdMaXdNdOdPdQQtQt",
"QtQtdRdSdydyaXaXdTdUdldldVdWdXdldldldldldYdZd0d1d2aXaYd3d4.3QtQt",
"QtQt.md5aXaXaXaXd6d7d8dldldldldld9e.e#dldldldleaaXebecedeeefQtQt",
"QtQt.legaXeheiejekelemeneodldldlepeqerdldldleseteuevewexeyaSQtQt",
"QtQt#FezeAeBeCeDeEeFeGeHeIeJdldldHeKdldleLeMeNeOePeQeReSeTeUQtQt",
"QtQt#2.O.leVeWeXeYeZe0e1e2e3e4e5e6e7dLe8e9f.f#fafbfcfdfe.mQtQtQt",
"QtQtQtQtQtfffgfhfifjfkflfmfnfofpfqfrfsftfufvfwfxfyfzfAdRQtQtQtQt",
"QtQtQtQtfBfCfDfEfFfGfHfIfJfKfLfMfNfOfPfQfRfvfSfTfUfVfWfXQtQtQtQt",
"QtQtQt.GfYfZf0f1f2f3fLfLfLf4f5f6f7f8f9g.g#gagbgcgdfLgegfQtQtQtQt",
"QtQtQtfXggghgigjgkfygkglgmgngogpgqgrgqgsgtgugvgcgwfLgxgy#kQtQtQt",
"QtQtQt.mgzgAfmgBgCgDfLgEgFgGgHgIgJgKgLgMgNgOgPgQgRfLfLgSgTQtQtQt",
"QtQtQt.lgUgVgWgXgYgZg0g1g2g3g4g5g6g7g8g9h.h#hahbhcfLfLhd.lQtQtQt",
"QtQtQthehfhghhhihjhkhlhmhnhohphqg9hrhsg9g9hthuhvgDfLfLhwhxQtQtQt",
"QtQt#khyhzhAhBhChDhEhFhGhHhIhJhKg9hLhMhNhOhPhQhRgEfLgkhS.OQtQtQt"};
