/* XPM */
static char *gzdoom[] = {
/* columns rows colors chars-per-pixel */
"48 48 32 1 ",
"  c #070707",
". c #0B0B0B",
"X c #151515",
"o c gray10",
"O c gray12",
"+ c #262705",
"@ c gray15",
"# c gray17",
"$ c #3C3C3C",
"% c #522526",
"& c #285526",
"* c #434343",
"= c #4C4C4C",
"- c #535353",
"; c #646464",
": c gray45",
"> c #865327",
", c #BF5127",
"< c #865253",
"1 c #2B8B27",
"2 c #58C627",
"3 c #57C553",
"4 c #5BFF54",
"5 c #878853",
"6 c #9D997D",
"7 c #C08753",
"8 c #FD8554",
"9 c #848484",
"0 c #BF8687",
"q c #FEC187",
"w c #FDBFC1",
"e c None",
/* pixels */
"eeeeeeeeeeeeeeeeee666eeeeeeeeeeeeeeeeeeeeeeeeeee",
"eeeeeeeeeeeeeeee55-##*5eeeeeeeeeeeeeeeeeeeeeeeee",
"eeeeeeeeeeeeeeee56665<;5eeeeeeeeeeeeeeeeeeeeeeee",
"eeeeeeeeeeeeee<=@$=;:*@;=eeeeeeeeeeeeeeeeeeeeeee",
"eeeeeeeeeeeee<==@*-:9-@;=<eeeeeeeeeeeeeeeeeeeeee",
"eeeeeeeeeeeee;==-*=--*$65;eeeeeeeeeeeeeeeeeeeeee",
"eeeeeeeeeeeeee<*<-=66*-66eeeeeeeeeeeeeeeeeeeeeee",
"eeeeeeeeeeeeeeeX#-555--#;eeeeeeeeeeeeeeeeeeeeeee",
"eeeeeeeeeeeeee*X#**--*#@*11eeeeeeeeeeeeeeeeeeeee",
"eeeeeeeee&333432@oXXXXo+&1321&eeeeeeeee@OXeeeeee",
"eeeeeeee&&2143311&@oX@&&12&11&&eeeeeeO@oX eeeeee",
"eeeeeeee&13313&4121&X&1111111&&ee--O@@o  eeeeeee",
"eeeeeeee+&111&122111&11111&X&&&e**-*OX eeeeeeeee",
"eeeeeeeeX+&&&X&&1111&&11&+X..O***$#$  eeeeeeeeee",
"eeeeeeee%>7,>X.&&&&&&&&X...Xo#--$Oooeeeeeeeeeeee",
"eeeeeee%>0q8>%.XXXXX.X#**$#OX++@+,,>eeeeeeeeeeee",
"eeeeeee%>7q,%%X+XX..X#*$@@OXX%%+%>>>eeeeeeeeeeee",
"eeeeeee%%;5-#+XX..O&#$@OXXXX$%%+>%%@eeeeeeeeeeee",
"eeeeeee%=5q87%@@.X*$@OXXXXOX#%%%%@+eeeeeeeeeeeee",
"eeeeeee#=,wwq,$*o$@@OXXXXOOe##%@+eeeeeeeeeeeeeee",
"eeeeeeeOo>qw7$$$oXXXXXXXo.oeeeeeeeeeeeeeeeeeeeee",
"eeeeeeeeX%$$OX...oooo%+...Oeeeeeeeeeeeeeeeeeeeee",
"eeeeeeeeee.......X++X+X..O#eeeeeeeeeeeeeeeeeeeee",
"eeeeeeeeee......%%%%%O*XXO#eeeeeeeeeeeeeeeeeeeee",
"eeeeeeeeeee....+%%%@X++++X++eeeeeeeeeeeeeeeeeeee",
"eeeeeeeeeeee..XX%@+XX&&&+XX@eeeeeeeeeeeeeeeeeeee",
"eeeeeeeeeeee.XX&XXXXX+&+++XXeeeeeeeeeeeeeeeeeeee",
"eeeeeeeeeeeeX+XX&X..X+&&&XX+eeeeeeeeeeeeeeeeeeee",
"eeeeeeeeeeeeXXX++XXXXX&&&&XXeeeeeeeeeeeeeeeeeeee",
"eeeeeeeeeeeeeXXXXXXX&+&&&&+eeeeeeeeeeeeeeeeeeeee",
"eeeeeeeeeeeeeXX+XXX++&&&&&+eeeeeeeeeeeeeeeeeeeee",
"eeeeeeeeeeeeeX++XXXX&&&&&&Xeeeeeeeeeeeeeeeeeeeee",
"eeeeeeeeeeeeeeX+XXXX&&+&&&Xeeeeeeeeeeeeeeeeeeeee",
"eeeeeeeeeeeeeeoXXXXX*;;;=*#eeeeeeeeeeeeeeeeeeeee",
"eeeeeeeeeeeeeeeoXXXo#====*#eeeeeeeeeeeeeeeeeeeee",
"eeeeeeeeeeeeeeeooooo+####Xeeeeeeeeeeeeeeeeeeeeee",
"eeeeeeeeeeeeeeeeoooo=XXXX#=eeeeeeeeeeeeeeeeeeeee",
"eeeeeeeeeeeeeeeeeX.X#-;;-=Oeeeeeeeeeeeeeeeeeeeee",
"eeeeeeeeeeeeeeeeee..*####@#eeeeeeeeeeeeeeeeeeeee",
"eeeeeeeeeeeeeeeeeeX.O*****#eeeeeeeeeeeeeeeeeeeee",
"eeeeeeeeeeeeeeeeeeXXX*=***eeeeeeeeeeeeeeeeeeeeee",
"eeeeeeeeeeeeeeeeeoXXX*==*#eeeeeeeeeeeeeeeeeeeeee",
"eeeeeeeeeeeeeeeeeoXXX-;;-#eeeeeeeeeeeeeeeeeeeeee",
"eeeeeeeeeeeeeeeeeoXXX*==#@eeeeeeeeeeeeeeeeeeeeee",
"eeeeeeeeeeeeeeeeeeXX@555<*eeeeeeeeeeeeeeeeeeeeee",
"eeeeeeeeeeeeeeeeeeee=<<<=*eeeeeeeeeeeeeeeeeeeeee",
"eeeeeeeeeeeeeeeeeeeeO*=*#Oeeeeeeeeeeeeeeeeeeeeee",
"eeeeeeeeeeeeeeeeeeeeeoXXooeeeeeeeeeeeeeeeeeeeeee"
};
