/* XPM */
static char * spaghetti_armageddon_xpm[] = {
"32 32 8 1",
" 	c None",
".	c #E46018",
"+	c #FCB800",
"@	c #595959",
"#	c #7B7E7F",
"$	c #1F1F1F",
"%	c #AC8000",
"&	c #FCA048",
"                                ",
"                                ",
"                                ",
"                                ",
"                                ",
"             .                  ",
"            ..                  ",
"            .+..                ",
"            .++..               ",
"            ..@@@...            ",
"           ..@@@@@.+.           ",
"           .#@@@@@@.            ",
"          .+#@@#####            ",
"          .+##@##$$$$           ",
"         .   #@######           ",
"             ##@######          ",
"             ##@#######         ",
"             ###$$####$$        ",
"              ##$$$$$$$$        ",
"              ##$$$$$$$$        ",
"              ##$$$$$$$$        ",
"              ##$$$$$$$$        ",
"              ##$$$$$$$$%       ",
"              ##$$$$$$$$&%      ",
"               #$$$$$$$$&&%%    ",
"            %%%#$$$$$$$$&&&&%   ",
"           %%%%$$$$$$$$%&&&&%   ",
"           %%%&&$$$$$$%%&&&&%   ",
"           %%%&&&&%$%%%&&&&%%   ",
"            %%&&&&&%%&&&&&&&%%  ",
"             %%&&&&%%&&&&&&&%%  ",
"             %%&&&&&%&&&&&&&%%  "};
