/* XPM */
static char *freedoom2[] = {
/* columns rows colors chars-per-pixel */
"59 64 256 2 ",
"   c black",
".  c #1F170B",
"X  c #170F07",
"o  c #4B4B4B",
"O  c gray100",
"+  c #1B1B1B",
"@  c #131313",
"#  c #0B0B0B",
"$  c #070707",
"%  c #2F371F",
"&  c #232B0F",
"*  c #171F07",
"=  c #0F1700",
"-  c #4F3B2B",
";  c #473323",
":  c #3F2B1B",
">  c #FFB7B7",
",  c #F7ABAB",
"<  c #F3A3A3",
"1  c #EB9797",
"2  c #E78F8F",
"3  c #DF8787",
"4  c #DB7B7B",
"5  c #D37373",
"6  c #CB6B6B",
"7  c #C76363",
"8  c #BF5B5B",
"9  c #BB5757",
"0  c #B34F4F",
"q  c #AF4747",
"w  c #A73F3F",
"e  c #A33B3B",
"r  c #9B3333",
"t  c #972F2F",
"y  c #8F2B2B",
"u  c #8B2323",
"i  c #831F1F",
"p  c #7F1B1B",
"a  c #771717",
"s  c #731313",
"d  c #6B0F0F",
"f  c #670B0B",
"g  c #5F0707",
"h  c #5B0707",
"j  c #530707",
"k  c #4F0000",
"l  c #470000",
"z  c #430000",
"x  c #FFEBDF",
"c  c #FFE3D3",
"v  c #FFDBC7",
"b  c #FFD3BB",
"n  c #FFCFB3",
"m  c #FFC7A7",
"M  c #FFBF9B",
"N  c #FFBB93",
"B  c #FFB383",
"V  c #F7AB7B",
"C  c #EFA373",
"Z  c #E79B6B",
"A  c #DF9363",
"S  c #D78B5B",
"D  c #CF8353",
"F  c #CB7F4F",
"G  c #BF7B4B",
"H  c #B37347",
"J  c #AB6F43",
"K  c #A36B3F",
"L  c #9B633B",
"P  c #8F5F37",
"I  c #875733",
"U  c #7F532F",
"Y  c #774F2B",
"T  c #6B4727",
"R  c #5F4323",
"E  c #533F1F",
"W  c #4B371B",
"Q  c #3F2F17",
"!  c #332B13",
"~  c #2B230F",
"^  c #EFEFEF",
"/  c #E7E7E7",
"(  c #DFDFDF",
")  c gray86",
"_  c LightGray",
"`  c #CBCBCB",
"'  c gray78",
"]  c gray75",
"[  c #B7B7B7",
"{  c gray70",
"}  c gray67",
"|  c #A7A7A7",
" . c #9F9F9F",
".. c #979797",
"X. c #939393",
"o. c #8B8B8B",
"O. c #838383",
"+. c gray50",
"@. c #777777",
"#. c #6F6F6F",
"$. c gray42",
"%. c gray39",
"&. c #5B5B5B",
"*. c gray34",
"=. c gray31",
"-. c gray28",
";. c #434343",
":. c gray23",
">. c #373737",
",. c #2F2F2F",
"<. c #272727",
"1. c #232323",
"2. c #77FF6F",
"3. c #6FEF67",
"4. c #67DF5F",
"5. c #5FCF57",
"6. c #5BBF4F",
"7. c #53AF47",
"8. c #4B9F3F",
"9. c #439337",
"0. c #3F832F",
"q. c #37732B",
"w. c #2F6323",
"e. c #27531B",
"r. c #1F4317",
"t. c #17330F",
"y. c #13230B",
"u. c #0B1707",
"i. c #BFA78F",
"p. c #B79F87",
"a. c #AF977F",
"s. c #A78F77",
"d. c #9F876F",
"f. c #9B7F6B",
"g. c #937B63",
"h. c #8B735B",
"j. c #836B57",
"k. c #7B634F",
"l. c #775F4B",
"z. c #6F5743",
"x. c #67533F",
"c. c #5F4B37",
"v. c #574333",
"b. c #533F2F",
"n. c #9F8363",
"m. c #8F7753",
"M. c #836B4B",
"N. c #775F3F",
"B. c #675333",
"V. c #5B472B",
"C. c #4F3B23",
"Z. c #43331B",
"A. c #7B7F63",
"S. c #6F7357",
"D. c #676B4F",
"F. c #5B6347",
"G. c #53573B",
"H. c #474F33",
"J. c #3F472B",
"K. c #373F27",
"L. c #FFFF73",
"P. c #EBDB57",
"I. c #D7BB43",
"U. c #C39B2F",
"Y. c #AF7B1F",
"T. c #9B5B13",
"R. c #874307",
"E. c #732B00",
"W. c gray100",
"Q. c #FFDBDB",
"!. c #FFBBBB",
"~. c #FF9B9B",
"^. c #FF7B7B",
"/. c #FF5F5F",
"(. c #FF3F3F",
"). c #FF1F1F",
"_. c red",
"`. c #EF0000",
"'. c #E30000",
"]. c #D70000",
"[. c #CB0000",
"{. c #BF0000",
"}. c #B30000",
"|. c #A70000",
" X c #9B0000",
".X c #8B0000",
"XX c #7F0000",
"oX c #730000",
"OX c #670000",
"+X c #5B0000",
"@X c #4F0000",
"#X c #430000",
"$X c #E7E7FF",
"%X c #C7C7FF",
"&X c #ABABFF",
"*X c #8F8FFF",
"=X c #7373FF",
"-X c #5353FF",
";X c #3737FF",
":X c #1B1BFF",
">X c blue",
",X c #0000E3",
"<X c #0000CB",
"1X c #0000B3",
"2X c #00009B",
"3X c #000083",
"4X c #00006B",
"5X c #000053",
"6X c gray100",
"7X c #FFEBDB",
"8X c #FFD7BB",
"9X c #FFC79B",
"0X c #FFB37B",
"qX c #FFA35B",
"wX c #FF8F3B",
"eX c #FF7F1B",
"rX c #F37317",
"tX c #EB6F0F",
"yX c #DF670F",
"uX c #D75F0B",
"iX c #CB5707",
"pX c #C34F00",
"aX c #B74700",
"sX c #AF4300",
"dX c gray100",
"fX c #FFFFD7",
"gX c #FFFFB3",
"hX c #FFFF8F",
"jX c #FFFF6B",
"kX c #FFFF47",
"lX c #FFFF23",
"zX c yellow",
"xX c #A73F00",
"cX c #9F3700",
"vX c #932F00",
"bX c #872300",
"nX c #4F3B27",
"mX c #432F1B",
"MX c #372313",
"NX c #2F1B0B",
"BX c #000053",
"VX c #000047",
"CX c #00003B",
"ZX c #00002F",
"AX c #000023",
"SX c #000017",
"DX c #00000B",
"FX c None",
"GX c #FF9F43",
"HX c #FFE74B",
"JX c #FF7BFF",
"KX c magenta",
"LX c #CF00CF",
"PX c #9F009B",
"IX c #6F006B",
"UX c #A76B6B",
/* pixels */
"FXFXFXFXFXFXFXFXFXFXFXFXFXFXFXFXFXFXFXFXFXFXFXFXFXFXFXFXFX..FXFXFXFXFXFXFXFXFXFXFXFXFXFXFXFXFXFXFXFXFXFXFXFXFXFXFXFXFX",
"FXFXFXFXFXFXFXFXFXFXFXFXFXFXFXFXFXFXFXFXFXFXFXFXFXFXFXFXX.X.FXFXFXFXFXFXFXFXFXFXFXFXFXFXFXFXFXFXFXFXFXFXFXFXFXFXFXFXFX",
"FXFXFXFXFXFXFXFXFXFXFXFXFXFXFXFXFXFXFXFXFXFXFXFXFXFXFXFXo.O.FXFXFXFXFXFXFXFXFXFXFXFXFXFXFXFXFXFXFXFXFXFXFXFXFXFXFXFXFX",
"FXFXFXFXFXFXFXFXFXFXFXFXFXFXFXFXFXFXFXFXFXFXFXFXFXFXFXFXO.<.FXFXFXFXFXFXFXFXFXFXFXFXFXFXFXFXFXFXFXFXFXFXFXFXFXFXFXFXFX",
"FXFXFXFXFXFXFXFXFXFXFXFXFXFXFXFXFXFXFXFXFXFXFXFXFXFXFXO.+.@.1.FXFXFXFXFXFXFXFXFXFXFXFXFXFXFX@.FXFXFXFXFXFXFXFXFXFXFXFX",
"FXFXFXFXFXFXFXFXFXFXFXFXFXFXFXFXFXFX@.FXFXFXFXFXFXFXFX+.@.@.,.FXFXFXFXFXFXFXFXFXFXFXFXFXFXFX@.FXFXFXFXFXFXFXFXFXFXFXFX",
"FXFXFXFXFXFXFXFXFXFXFXFXFXFXFXFXFX+.@.FXFXFXFXFXFXn.m.@.@.@.@.n.G D FXFXFXFX{  .FXFXFXFXFX@.@.FXFXFXFXFXFXFXFXFXFXFXFX",
"FXFXFXFXFXFXFXFXFXFXFXFXFXFXFXFXFX-.@.@.I P K J H H d.f.+.+.O.H L L T.I I U U o.FXFXFXFXFX#.o.FXFXFXFXFXFXFXFXFXFXFXFX",
"FXFXFXFXFXFXFXFXFXFXFXFXFXFXFXFXFXo #.#.A S G H A m C Z a.h.i.m p.H K L A Z Z Z S FXFXFXFX$.{ FXFXFXFXFXFXFXFXFXFXFXFX",
"FXFXFXFXFXFXFXFXFX$.FXFXFXFXFXJ 0X;.%.%.G K G qXN V C Z S m.Z N N 9XV V qXL P F S Z G FX:.&.%.FXFXFXFXFXFXFXFXFXFXFXFX",
"FXFXFXFXFXFXFXFXFX$.@.FXFXFXZ V S >.=.*.L H 0XB V Z S S S K S B Z S Z C V V C D F D Z A :.=.*.FXFXFXFXFXFXFXFXFXFXFXFX",
"FXFXFXFXFXFXFXFXFX#.@.>.J C S H P >.=.*.A N M 0XZ D H F D P F V C G F S A V B V D J H S :.=.*.-.FXFXFXFXFXFXFXFXFXFXFX",
"FXFXFXFXFXFXFXFX*.@.@.A S G L I R >.o =.N B V Z S G K D F I J V C G J G F S C C C S H H :.o =.;.FXFXFXFXFXFXFXFXFXFXFX",
"FXFXFXFXFXFXFXFX&.K A G L I Y W I >.o o C A D F G J K Z F I K V C H L L J H F A Z Z A A :.o o :.J FXFXFXFXFXFXFXFXFXFX",
"FXFXFXFXFXFXFXFXJ F K U Y R Z.L V >.-.-.F G G H L P D A H I L V Z J P I P L H G G S A Z >.-.-.>.H H FXFXFXFXFXFXFXFXFX",
"FXFXFXFXFXFXFXP H I T R Z.R S Z A S F G G H K P P L A Z S J H A Z J I R.I I P J H H G D >.-.;.,.I K K FXFXFXFXFXFXFXFX",
"FXFXFXFXFXFXY J U R W Z.W A A S S G G J K L P I I J A Z Z A F S Z D P R.U I I P K J H H >.;.:.1.Y U K P FXFXFXFXFXFXFX",
"FXFXFXFXFXFXK I E W MXmXH S S D G H L L P P U Y I D Z Z A N S S Z Z M.R.T I I I I L J H H ;.>.+ D E T P FXFXFXFXFXFXFX",
"FXFXFXFXFXI P Q MXNXMXL D S D H K L P P I U T Y H Z Z Z D 9XA D A Z m.U T Y I I I I P L K J J + N.N.Y R P FXFXFXFXFXFX",
"FXFXFXFXT P Q MXMXMXT H D D G K P I I U Y T Y K C C Z S G B D F A S S m.Y T U U U U U U I L K L M.c.c.E R B.FXFXFXFXFX",
"FXFXFXT L W MXNXNXW I H G H J L I I U Y T Y J C B V A A P Z G V A G Z S K U Y Y U U U Y Y U L K L N.; : MXC.C.FXFXFXFX",
"FXFXR I T NXNXQ W E I L K L L P I Y Y Y P G 1 N m fXc L J N s.J J Z G , A n.I Y T Y U Y Y U I L L P b.; MXMX~ FXFXFXFX",
"FXFXP T NXMXW R R R Y I I I U U U U P J A N v 7Xx ^ / B.K i.n.A H J A S , p.n.I Y T Y Y Y U P L L P Y : MXQ . X FXFXFX",
"FXP R W W R R R T T T Y Y Y T Y P H D A C n n M m G I Y c.k.l.M.] n.K H A N A n.L Y R R R Y P P I I Y R MXMXNXX X FXFX",
"X $ W R E R R R R T T T T T R I G S S S A Z Z H U R T g.` p.] i.j.[ K L K i.S F F M.T E E T I P I U Y T mXNX. . X FXFX",
"$ $ $ R R R R R R R T T T R Y H D F H J J D p.Y Q Q h R.U.U.Y.a.s.l.H P P P L K J H L I U I L P I U Y T R : . NX: FXFX",
"    NXT U T T R R R R T R E U J G J L P L D P C.z ! ! ! R.R.R.R.I a.Y I U U U I I I J K K K L P I U Y T R : X MXc.X FX",
"#   # R U I Y T R R R R R E T L K P U U I P T : z Q U.U.U.U.U.U.a mXY P U U U U Y Y U K P P P I I U Y T R ~ $ X ~ X FX",
"X   $ MXT I I T R R R R R R T U I U Y Y U T R MX. E.zXU.& E kXU.R.j : R Y Y Y Y Y Y Y I L I P I I U Y T E . $ . . X FX",
"X   $ . R Y P Y R R R T T T T T Y Y T R R R W MXz . zXzXU.zXlXY.h l z W R T Y Y Y Y T U P U I I U Y T T mX# X NXX . FX",
"X   X X E Y K U R R R R T T R T T Y T R E W W MXz NXX zXO L.zXR l z MXR E E R U P Y T Y Y T T Y U Y T R ~ $ X MX. . FX",
"X   X # W P J T E E R R R T T R Y U Y T R E T E z z z X MXW NXX z z W Y T R T P K R T T R R W R Y Y T R . $ NXW NX. FX",
"X   X $ E K J R E E T R Z.R T R Y T T Y Y Y Y U W NXz z X X z z NXE Y Y T U P Z H C.T R R R E R T Y T E X X MXE ~ X FX",
"FXFXX   R n.H W E E T W MXE T o o T T T T Y T Y I T mXNXNXNXNXmXI U Y # # # # # H N.E R R W MXQ R Y T W # X Q E NXFXFX",
"FXFXFX8 8 8 $ y 9 9 y $ $ $ o o o o o o o $ $ $ $ $ $ $ $ $ $ $ $ $ $ # # $ $ $ o o o o o o o 8 8 8 $ $ $ $ $ FXFXFXFX",
"FXFXFX8 8 8 $ y 0 9 y $ $ o o o &.&.&.&.&.FX$ $ $ $ $ $ $ $ $ $ $ $ FXFXFX$ $ FXo o #.:.:.o mXy 8 q $ $ $ FXFXFXFXFXFX",
"FXFXFX8 8 8 FXr 9 9 r FXFXo o o &.#.#.&.&.FXFXFX$ $ $ $ $ $ $ $ FXFXFXFXFXFXFXFX:.:.#.&.&.:.MXq 8 0 FXFXFXFXFXFXFXFXFX",
"FXFXFX8 8 8 FXw 9 0 y FXFXo o o #.#.#.o FXFXFXFXFXFXFXFXFXFXFXFXFXFXFXFXFXFXFXFXFX:.#.#.&.:.X w 9 0 FXFXFXFXFXFXFXFXFX",
"FXFXFX8 8 8 8 q 9 0 T FXFXo o &.#.#.o =.FXFXFXFXFXFXFXFXFXFXFXFXFXFXFXFXFXFXFXFXFX:.:.#.&.&.+ e 9 0 FXFXFXFXFXFXFXFXFX",
"FXFXFXFX8 8 8 q 9 q FXFXFXo o #.#.=.=.FXFXFXFXFXFXFXFXFXFXFXFXFXFXFXFXFXFXFXFXFXFX:.:.:.#.&.:.r 9 9 r FXFXFXFXFXFXFXFX",
"FXFXFXFXFX8 8 0 9 q FXFXFXo o #.#.=.=.FXFXFXFXFXFXFXFXFXFXFXFXFXFXFXFXFXFXFXFXFXFXFX:.:.#.&.:.y 8 9 e FXFXFXFXFXFXFXFX",
"FXFXFXFXFX8 8 0 9 w FXFXFXo =.#.#.=.FXFXFXFXFXFXFXFXFXFXFXFXFXFXFXFXFXFXFXFXFXFXFXFX:.:.#.&.;.T 8 9 w FXFXFXFXFXFXFXFX",
"FXFXFXFXFXFXt 0 9 r FXFXFXo =.#.#.=.FXFXFXFXFXFXFXFXFXFXq FXFXFXFXFXFXFXFXFXFXFXFXFX:.:.#.&.;.R 8 9 w FXFXFXFXFXFXFXFX",
"FXFXFXFXFXFXe 9 0 y 8 FXFXo =.&.#.*.FXFXFXFXFXFXFXFXFXFXq 9 FXFXFXFXFXFXFXFXFXFXFXFXFX;.#.&.;.: 8 9 q FXFXFXFXFXFXFXFX",
"FXFXFXFXFXFXw 9 0 8 8 FXy o =.&.#.=.FXFXFXFXFXFXFXFXFXFXw 9 q FXFXFXFXFXFXFXFXFXFXFXFX;.#.&.;.MX8 9 q FXFXFXFXFXFXFXFX",
"FXFXFXFXFXFXq 9 q 8 8 8 t FX=.&.#.FXFXFXFXFXFXFXq 7 FXFXw 9 0 FXFXFXFXFXFXFXFXFXFXFXFX;.#.&.;.  8 8 0 FXFXFXFXFXFXFXFX",
"FXFXFXFXFXFXq 9 w 8 8 8 e 9 =.=.#.FXFXFXFXFXFXt 8 8 q FXw 9 0 FXFXFXFXFXFXFXFXFXFXFXFXFX#.-.-.8 t 8 0 y FXFXFXFXFXFXFX",
"FXFXFXFXFXy 0 9 e FX8 8 e 9 =.o o FXFXFXFXFXFX0 8 9 t FXe 9 0 FXFXFXFXFXFXFXFXFXFXFXFX-.-.-.-.8 y 8 8 r FXFXFXFXFXFXFX",
"FXFXFXFXFXr 0 0 r FX8 8 q 8 o o o -.FXFXFXFXy 8 8 8 FXFXr 0 0 FXFXFXFXFXFXFXFXFXFXFXFX-.-.-.-.0 R q 8 e FXFXFXFXFXFXFX",
"FXFXFXFXFXw 0 q FXFXFX8 0 8 0 o -.-.FXFXFXFXq 8 0 FXFX/.y 0 0 FXFXFXFXFXFXFXFXFXFXFXFXo o -.9 /.NXq 8 e FXFXFXFXFXFXFX",
"FXFXFXFXFXw 9 8 8 FXFXFXr 9 7 8 ;.;.FXFXFXT 9 8 FXFX/./.y q 0 FXFXFXFXFXFXFXFXFXFXFXo o o 8 /.8 r 9 8 e FXFXFXFXFXFXFX",
"FXFXFXFXFXFX8 8 ^.^.FXFXFXr 9 7 /.;.;.FXFXq 8 8 FXFX9 w T q q FXFXFXFXFXFXFXFXFXFXFXo o /./.7 e MX9 8 e FXFXFXFXFXFXFX",
"FXFXFXFXFXFX8 8 /.O ^./.^.^.~.8 /.^.:.FX^.0 9 8 FXFXFXFXR w 9 T FXFXFXFXFXFXFXFXFXFXo /./.7 w FXFX9 9 y FXFXFXFXFXFXFX",
"FXFXFXFXFXFXr 8 8 8 8 8 8 8 /./.^.^.~.:.T q 8 FXFXFXFXFXFXT q 8 FX~.^.^.^.^.^.~.~.=.N /.7 q FXFX9 9 8 FXFXFXFXFXFXFXFX",
"FXFXFXFXFXFXFXFXFXFXFXy e 8 9 7 ^././.q r 9 8 FXFXFXFXFXFXFXe /././.~.v O O O b ^././././.^.9 9 9 /.q FXFXFXFXFXFXFXFX",
"FXFXFXFXFXFXFXFXFXFXFXFXFXFXFXFXe q 7 /.8 8 e FXFXFXFXFXFXFXR y y t r e w q q 0 0 9 9 8 7 7 /./././.y FXFXFXFXFXFXFXFX",
"FXFXFXFXFXFXFXFXFXFXFXFXFXFXFXFXFXFXT 0 8 8 FXFXFXFXFXFXFXFXFXFXFXFXFXFXFXFXFX: mX; C.R R T FXFXFXFXFXFXFXFXFXFXFXFXFX",
"FXFXFXFXFXFXFXFXFXFXFXFXFXFXFXFXFXFXFXFXe y FXFXFXFXFXFXFXFXFXFXFXFXFXFXFX8 8 8 8 8 8 FXFXFXFXFXFXFXFXFXFXFXFXFXFXFXFX",
"FXFXFXFXFXFXFXFXFXFXFXFXFXFXFXFXFXFXFXFXFXFXFXFXFXFXFXFXFXFXFXFXFXFXFX^././.7 q y MXFXFXFXFXFXFXFXFXFXFXFXFXFXFXFXFXFX",
"FXFXFXFXFXFXFXFXFXFXFXFXFXFXFXFXFXFXFXFXFXFXFXFXFXFXFXFXFXFXFXFXFX^./././.8 w FXFXFXFXFXFXFXFXFXFXFXFXFXFXFXFXFXFXFXFX",
"FXFXFXFXFXFXFXFXFXFXFXFXFXFXFXFXFXFXFXFXFXFXFXFXFXFXFXFXFXFXFXFX^./././.0 r FXFXFXFXFXFXFXFXFXFXFXFXFXFXFXFXFXFXFXFXFX",
"FXFXFXFXFXFXFXFXFXFXFXFXFXFXFXFXFXFXFXFXFXFXFXFXFXFXFXFXFXFX^./././.8 FXFXFXFXFXFXFXFXFXFXFXFXFXFXFXFXFXFXFXFXFXFXFXFX",
"FXFXFXFXFXFXFXFXFXFXFXFXFXFXFXFXFXFXFXFXFXFXFXFXFXFXFXFXFX^././.7 0 FXFXFXFXFXFXFXFXFXFXFXFXFXFXFXFXFXFXFXFXFXFXFXFXFX",
"FXFXFXFXFXFXFXFXFXFXFXFXFXFXFXFXFXFXFXFXFXFXFXFXFXFXFXFX/././.9 FXFXFXFXFXFXFXFXFXFXFXFXFXFXFXFXFXFXFXFXFXFXFXFXFXFXFX"
};
